# xmcd
# Copyright (C) 1995-1998 Ti Kan
#
# Track frame offsets:
#       150
#       17180
#       33790
#       50157
#       69027
#       85772
#       110225
#       128072
#       148952
#       171390
#       200982
#       215692
#       228470
#       245442
#       259415
#       273805
#       288660
#       310840
#
# Disc length: 4342 seconds
#
# Revision: 0
# Processed by: cddbd v1.5.2PL0 Copyright (c) Steve Scherf et al.
# Submitted via: CD-Import v1.0
#
DISCID=1c10f412
DTITLE=Cocteau Twins - Stars And Topsoil - A Collection (1982-1990)
DYEAR=1900
DGENRE=
TTITLE0=Blind Dumb Deaf
TTITLE1=Sugar Hiccup
TTITLE2=My Love Paramour
TTITLE3=Pearly-Dewdrops' Drops
TTITLE4=Lorelei
TTITLE5=Pandora
TTITLE6=Aikea-Guinea
TTITLE7=Pink Orange Red
TTITLE8=Pale Clouded White
TTITLE9=Lazy Calm
TTITLE10=The Thinner The Air
TTITLE11=Orange Appled
TTITLE12=Cico Buff
TTITLE13=Carolyn's Fingers
TTITLE14=Fifty-Fifty Clown
TTITLE15=Iceblink Luck
TTITLE16=Heaven Or Las Vegas
TTITLE17=Watchlar
EXTD=
EXTT0=
EXTT1=
EXTT2=
EXTT3=
EXTT4=
EXTT5=
EXTT6=
EXTT7=
EXTT8=
EXTT9=
EXTT10=
EXTT11=
EXTT12=
EXTT13=
EXTT14=
EXTT15=
EXTT16=
EXTT17=
PLAYORDER=
